<?xml version="1.0" standalone="no"?>
<!DOCTYPE svg PUBLIC "-//W3C//DTD SVG 20010904//EN"
 "http://www.w3.org/TR/2001/REC-SVG-20010904/DTD/svg10.dtd">
<svg version="1.0" xmlns="http://www.w3.org/2000/svg"
 width="256.000000pt" height="256.000000pt" viewBox="0 0 256.000000 256.000000"
 preserveAspectRatio="xMidYMid meet">
<metadata>
Created by potrace 1.11, written by Peter Selinger 2001-2013
</metadata>
<g transform="translate(0.000000,256.000000) scale(0.100000,-0.100000)"
fill="#000000" stroke="none">
<path d="M1140 2489 c-742 -91 -1217 -832 -989 -1539 12 -36 26 -69 32 -75 7
-7 8 -6 3 3 -4 6 -3 12 1 12 5 0 22 -39 38 -87 16 -49 43 -110 59 -136 l29
-49 131 131 c126 126 163 150 181 121 8 -13 -31 -54 -44 -45 -6 3 -11 -1 -11
-9 0 -9 -5 -16 -12 -16 -6 0 -9 -3 -5 -6 7 -8 77 34 77 47 0 4 8 6 18 2 10 -4
4 7 -15 25 -17 17 -29 33 -26 36 3 3 -4 17 -16 32 -20 25 -20 28 -5 46 10 10
15 21 12 24 -3 3 -15 -6 -25 -20 -15 -18 -23 -22 -31 -14 -9 9 -17 9 -34 0
-13 -6 -38 -14 -56 -17 -18 -4 -45 -13 -60 -21 -15 -8 -34 -14 -43 -14 -9 0
-19 -3 -22 -7 -4 -4 -25 -8 -47 -10 -30 -3 -40 0 -40 10 0 21 39 67 56 67 8 0
19 11 24 25 6 17 17 25 33 25 13 0 33 11 44 24 13 15 37 26 66 30 36 6 46 11
49 28 4 30 24 33 32 6 6 -22 7 -22 21 9 8 18 18 33 23 33 6 0 13 15 16 33 7
36 5 53 -7 49 -4 -1 -4 10 -1 24 5 19 3 25 -4 20 -16 -9 -26 36 -19 81 4 20
13 41 22 45 32 18 12 28 -57 29 -40 0 -93 4 -118 7 l-45 7 32 14 c18 7 31 17
28 21 -3 4 -33 11 -67 16 -58 6 -61 8 -33 16 17 5 43 9 59 9 41 0 25 10 -41
25 l-58 13 67 -2 c64 -3 90 6 51 16 -12 3 -8 5 9 6 36 1 45 19 13 27 -46 11
-26 21 42 22 38 0 78 0 91 1 12 1 32 -8 44 -19 12 -11 27 -20 32 -20 14 0 44
20 31 20 -5 0 -4 4 4 9 8 6 10 14 5 22 -5 8 -9 38 -10 67 -2 49 0 55 33 80 19
15 44 35 55 45 40 33 109 26 151 -16 14 -14 27 -17 48 -13 22 4 34 1 46 -13 9
-11 22 -17 29 -14 8 3 14 -2 14 -11 0 -22 52 -30 260 -42 103 -6 126 -1 134
28 5 18 8 20 15 9 17 -27 101 -16 175 23 27 14 64 28 83 32 30 6 39 2 71 -28
20 -19 45 -38 55 -41 23 -8 22 -48 -3 -79 -16 -21 -17 -28 -6 -43 10 -14 21
-17 47 -12 l34 6 -34 -15 c-26 -12 -31 -18 -21 -24 9 -5 20 -4 28 2 7 6 43 12
80 13 37 2 81 6 97 10 21 5 27 4 20 -3 -5 -5 -19 -12 -30 -15 -13 -3 -9 -5 12
-6 17 0 35 -6 39 -12 5 -8 -9 -10 -47 -6 -35 4 -43 3 -24 -2 l30 -8 -30 -5
c-63 -11 60 -8 145 3 54 7 90 17 97 27 11 13 13 13 13 1 0 -9 3 -10 8 -3 12
19 30 -8 21 -31 -6 -16 -8 -17 -8 -3 -1 19 -26 17 -176 -12 l-90 -18 75 -2
c41 -1 102 -2 135 -2 l60 0 -69 -8 c-38 -5 -81 -12 -95 -15 -25 -6 -25 -7 14
-25 36 -17 37 -19 14 -20 -52 0 -90 -12 -85 -26 8 -20 -26 -34 -82 -34 -48 0
-49 0 -44 -30 2 -18 -2 -40 -12 -55 -22 -33 -20 -42 4 -20 38 34 15 -22 -28
-67 -31 -34 -36 -76 -9 -84 11 -3 24 -1 30 5 17 17 37 13 30 -6 -5 -13 -2 -15
11 -10 10 4 20 7 22 7 3 0 3 4 -1 9 -3 5 0 13 6 16 6 4 13 -2 16 -14 3 -11 9
-19 13 -16 5 3 11 -4 15 -15 3 -11 15 -20 25 -20 10 0 22 -5 25 -11 4 -6 13
-8 19 -6 7 3 26 -5 42 -19 16 -13 37 -23 47 -24 10 0 22 -11 27 -24 5 -14 19
-26 32 -28 13 -2 27 -13 33 -25 5 -13 13 -23 17 -23 5 0 8 -7 8 -15 0 -13 -23
-20 -55 -16 -6 0 -16 -14 -23 -32 -17 -46 -72 -140 -79 -133 -3 3 13 41 36 85
22 43 41 84 41 89 0 6 -22 13 -50 17 -27 4 -52 11 -55 15 -3 5 -26 12 -50 16
-25 3 -48 10 -51 15 -3 5 -15 9 -27 9 -12 0 -31 7 -41 15 -11 8 -26 15 -33 15
-20 0 -16 -18 6 -25 45 -14 27 -110 -23 -121 -24 -5 -98 -35 -126 -51 -3 -2
-16 6 -28 18 -13 11 -30 19 -38 17 -9 -2 9 -16 41 -32 31 -15 54 -31 51 -34
-3 -3 -1 -11 6 -19 6 -7 8 -17 4 -21 -4 -4 -16 3 -26 15 -9 12 -20 20 -23 17
-10 -10 -48 17 -41 28 4 7 3 8 -4 4 -7 -4 -12 -1 -12 6 0 9 -3 9 -10 -2 -8
-13 -14 -8 -12 10 0 3 -10 7 -23 8 -20 1 -31 -12 -76 -96 -28 -53 -71 -128
-95 -165 -24 -37 -44 -71 -44 -76 0 -4 11 -13 25 -19 14 -6 25 -17 25 -24 0
-9 -3 -9 -12 0 -20 20 -47 14 -79 -19 -28 -29 -31 -37 -27 -80 5 -53 5 -54
-22 -39 -22 12 -45 -11 -36 -36 5 -14 4 -15 -8 -5 -8 7 -13 18 -10 24 2 7 -6
13 -21 13 -14 1 -25 -2 -25 -7 0 -5 7 -9 15 -9 8 0 15 -5 15 -11 0 -6 -9 -9
-20 -6 -16 4 -21 -1 -26 -21 -9 -43 -12 -49 -13 -25 -1 12 15 81 35 153 20 73
34 134 31 136 -2 3 -10 -16 -17 -40 -14 -50 -24 -56 -88 -53 -23 1 -42 -1 -42
-4 0 -12 -38 -17 -49 -6 -12 12 -12 13 -12 -63 0 -27 0 -56 0 -63 1 -9 13 -11
41 -9 22 2 40 0 40 -5 0 -5 -8 -9 -17 -10 -40 -3 -73 -23 -73 -43 0 -25 1 -25
45 0 49 27 77 26 92 -5 l11 -26 -81 3 c-64 2 -82 6 -83 18 -1 8 -2 158 -2 333
l-2 317 -23 0 c-13 0 -33 -9 -45 -20 -12 -11 -26 -20 -32 -20 -5 0 -10 -3 -10
-7 0 -10 -66 -10 -76 -1 -4 5 2 8 14 8 11 0 27 3 36 6 14 5 14 9 0 35 -14 28
-54 41 -54 18 0 -5 -5 -7 -10 -4 -6 4 -7 11 -4 17 4 7 2 8 -4 4 -7 -4 -12 -13
-12 -20 0 -7 -22 -25 -50 -40 -27 -15 -50 -32 -50 -37 0 -6 6 -7 13 -3 6 4 4
-1 -5 -11 -22 -24 -98 -29 -99 -6 0 10 -2 12 -6 4 -2 -7 -11 -13 -18 -13 -7 0
-16 -8 -19 -17 -4 -10 -4 -14 0 -10 4 4 13 2 21 -4 10 -9 18 -8 31 5 10 9 25
16 33 16 20 0 -30 -33 -55 -36 -38 -4 -76 -23 -76 -38 0 -21 -53 -56 -69 -47
-9 6 -10 11 -3 15 6 4 8 14 5 23 -4 9 -2 14 3 11 5 -3 29 7 54 23 58 37 31 37
-35 1 -38 -21 -49 -33 -47 -47 3 -16 1 -18 -9 -7 -11 10 -11 16 0 35 8 12 -14
-8 -47 -44 -58 -63 -69 -68 -112 -60 -3 1 2 6 10 11 12 8 12 10 1 10 -15 0
-63 -51 -56 -59 3 -2 14 4 25 14 19 17 19 17 15 -20 -3 -22 0 -44 7 -53 11
-13 11 -14 -2 -8 -8 5 46 -53 120 -127 l135 -136 46 45 c26 25 49 42 53 36 3
-5 -7 -21 -22 -35 -57 -54 -66 -79 -35 -91 12 -5 28 4 51 28 30 33 52 45 52
30 0 -10 -58 -64 -69 -64 -16 0 -13 -12 8 -37 11 -13 30 -23 45 -23 23 0 25
-3 17 -18 -11 -21 3 -42 27 -42 7 0 10 -4 7 -10 -7 -12 -36 -14 -33 -2 2 4 0
7 -4 7 -4 0 -112 104 -240 230 -144 143 -180 176 -96 88 76 -80 138 -153 140
-165 2 -14 16 -29 36 -39 18 -10 64 -44 102 -78 37 -34 72 -61 76 -61 4 0 21
12 36 27 23 22 32 25 46 16 13 -8 25 -6 52 7 32 16 51 17 220 7 116 -6 250 -6
360 -1 156 8 178 7 213 -8 21 -10 44 -15 50 -11 5 3 7 2 4 -4 -4 -6 6 -16 21
-22 24 -12 29 -10 49 16 16 19 19 29 11 32 -19 6 -33 23 -47 59 -15 35 -8 53
11 34 7 -7 17 -12 22 -12 6 0 -8 19 -29 42 -22 23 -9 14 28 -20 38 -34 72 -60
77 -57 5 3 11 1 15 -5 4 -7 12 -7 24 0 10 5 21 7 24 3 7 -6 31 46 29 60 -1 4
2 7 6 7 5 0 9 12 9 28 1 20 -12 39 -53 77 -30 28 -93 87 -139 132 -47 46 -92
83 -102 83 -24 0 -105 -90 -100 -111 4 -15 2 -16 -13 -7 -14 9 -22 9 -34 -1
-9 -7 -13 -17 -10 -22 3 -5 0 -9 -7 -9 -7 0 -9 10 -7 24 4 19 0 26 -19 30 -12
4 -23 13 -23 22 0 13 5 12 28 -5 l28 -20 235 235 c128 129 241 234 249 234 8
0 69 -54 135 -120 l121 -121 43 75 c116 202 170 427 158 651 -18 316 -140 583
-368 800 -116 111 -204 167 -320 204 -110 36 -128 38 -79 11 45 -25 37 -25
-33 -1 -168 58 -424 74 -597 37 -302 -65 -566 -244 -729 -496 -78 -121 -166
-330 -139 -330 5 0 3 -7 -5 -15 -37 -36 -53 -320 -28 -470 8 -48 8 -79 1 -100
-9 -28 -10 -28 -4 8 3 24 2 37 -5 33 -25 -16 -34 302 -12 434 19 107 75 272
122 360 168 307 448 516 801 597 113 25 381 23 517 -5 58 -12 106 -20 108 -18
7 6 -116 44 -192 60 -93 19 -272 27 -365 15z m522 -301 c54 -23 91 -57 48 -43
-46 14 -145 57 -155 67 -15 15 50 0 107 -24z m128 -332 c0 -3 -4 -8 -10 -11
-5 -3 -10 -1 -10 4 0 6 5 11 10 11 6 0 10 -2 10 -4z m430 -119 c34 -59 38 -77
13 -51 -20 19 -67 118 -53 109 6 -4 24 -30 40 -58z m-335 -47 c3 -5 -1 -10 -9
-10 -9 0 -16 5 -16 10 0 6 4 10 9 10 6 0 13 -4 16 -10z m-1240 -10 c3 -5 1
-10 -4 -10 -6 0 -11 5 -11 10 0 6 2 10 4 10 3 0 8 -4 11 -10z m1522 -96 c-3
-3 -12 -4 -19 -1 -8 3 -5 6 6 6 11 1 17 -2 13 -5z m236 -1 c-7 -2 -19 -2 -25
0 -7 3 -2 5 12 5 14 0 19 -2 13 -5z m-2120 -10 c-7 -2 -19 -2 -25 0 -7 3 -2 5
12 5 14 0 19 -2 13 -5z m2062 -268 c0 -133 -4 -186 -19 -242 -26 -102 -36 -91
-14 15 15 70 18 121 16 259 -2 119 0 167 7 155 5 -10 10 -91 10 -187z m-1790
95 c3 -5 1 -10 -4 -10 -6 0 -11 5 -11 10 0 6 2 10 4 10 3 0 8 -4 11 -10z m2
-242 c-3 -7 -5 -2 -5 12 0 14 2 19 5 13 2 -7 2 -19 0 -25z m1510 16 c-3 -3
-12 -4 -19 -1 -8 3 -5 6 6 6 11 1 17 -2 13 -5z m-1821 -203 c-13 -20 -26 -11
-26 16 0 25 1 26 16 11 9 -9 13 -21 10 -27z m2110 -8 c-3 -3 -13 0 -21 7 -13
10 -13 15 -3 21 13 8 35 -17 24 -28z m-351 -13 c3 -5 1 -10 -4 -10 -6 0 -11 5
-11 10 0 6 2 10 4 10 3 0 8 -4 11 -10z m-1818 -42 c-3 -8 -6 -5 -6 6 -1 11 2
17 5 13 3 -3 4 -12 1 -19z m1678 -100 c28 -12 32 -23 11 -31 -7 -3 -20 3 -30
14 -26 31 -22 36 19 17z m-978 -18 c-1 -11 -8 -20 -18 -20 -28 0 -30 -26 -7
-110 24 -91 36 -100 18 -15 -6 31 -9 59 -6 62 3 4 6 0 6 -8 0 -10 15 -14 57
-14 47 0 58 3 61 18 3 16 5 16 29 -3 14 -11 32 -20 39 -20 10 0 14 -12 14 -37
-1 -36 -2 -37 -15 -19 -8 11 -15 15 -15 9 0 -7 -17 -10 -45 -8 -25 2 -45 -1
-45 -6 0 -6 4 -8 9 -4 5 3 19 -7 30 -21 12 -15 21 -21 21 -15 0 7 5 9 11 6 6
-4 13 2 16 14 4 17 8 19 19 10 16 -13 19 -59 3 -59 -5 0 -7 5 -3 11 4 7 -1 7
-15 -1 -17 -9 -22 -19 -19 -42 2 -25 -2 -32 -27 -43 -30 -13 -30 -13 -5 -16
14 -1 30 -2 36 -2 6 0 11 -6 11 -13 0 -8 -11 -14 -24 -14 -17 0 -23 -5 -21
-17 2 -10 -7 -19 -25 -24 -25 -7 -29 -4 -41 24 -16 37 -21 21 -6 -18 6 -15 16
-25 23 -22 6 2 17 -3 23 -11 9 -12 17 -13 44 -4 41 15 63 15 55 2 -4 -6 -10
-8 -15 -5 -4 3 -13 -2 -19 -9 -7 -8 -26 -14 -44 -14 -46 0 -49 -1 -40 -14 8
-13 10 -24 12 -79 0 -16 4 -28 9 -26 4 3 12 -1 19 -8 10 -10 9 -14 -4 -19 -10
-4 -13 -14 -9 -31 4 -14 2 -25 -3 -25 -6 0 -13 17 -17 38 -9 51 -35 151 -82
317 -82 292 -83 307 -29 318 12 2 25 5 29 6 4 0 6 -8 5 -19z m857 -25 c-5 -11
-2 -13 10 -9 17 6 76 -13 76 -25 0 -4 -16 -22 -35 -41 -33 -32 -35 -33 -35
-11 0 14 -7 25 -20 28 -11 3 -20 10 -20 15 0 5 5 6 10 3 6 -3 10 -2 10 4 0 5
-4 12 -10 16 -11 7 -2 35 11 35 4 0 6 -7 3 -15z m-664 -10 c0 -8 -4 -15 -10
-15 -5 0 -10 7 -10 15 0 8 5 15 10 15 6 0 10 -7 10 -15z m-310 -9 c0 -8 8 -13
17 -12 20 1 37 -60 19 -68 -7 -3 -3 -11 9 -21 20 -16 19 -16 -5 -11 -14 4 -56
10 -94 16 -80 10 -99 23 -70 46 10 8 13 12 5 8 -9 -4 -12 -3 -7 4 4 6 13 9 20
6 7 -3 30 6 51 20 43 29 55 32 55 12z m902 -19 c-2 -11 4 -17 18 -17 11 0 24
-8 27 -17 4 -10 14 -23 22 -30 14 -10 9 -19 -34 -63 -59 -60 -81 -71 -129 -63
l-36 6 17 28 c19 31 37 37 50 15 8 -14 53 -32 53 -21 0 3 -10 9 -23 14 -12 5
-28 20 -35 33 -12 21 -10 31 14 82 18 39 32 56 43 54 9 -2 15 -11 13 -21z
m-1004 -98 c37 -8 54 -19 31 -19 -8 -1 -27 -7 -44 -15 -25 -12 -25 -14 -5 -8
42 10 88 5 132 -16 24 -11 39 -20 34 -21 -6 0 -1 -6 10 -14 25 -19 7 -39 -35
-39 -16 0 -30 -3 -29 -6 3 -28 -4 -39 -22 -34 -16 4 -19 2 -14 -11 3 -9 10
-14 14 -11 4 3 14 -2 21 -11 10 -13 10 -17 -2 -25 -10 -6 -19 -2 -31 14 -15
19 -19 20 -28 7 -15 -23 -12 3 5 43 12 29 22 37 51 43 31 6 34 8 19 17 -13 7
-24 6 -37 -2 -12 -7 -37 -9 -69 -5 -48 6 -52 9 -79 58 -32 56 -35 66 -20 66 6
0 17 -15 25 -32 9 -21 14 -26 15 -15 0 10 -5 27 -11 39 -10 18 -8 19 13 12 12
-4 38 -10 56 -15z m-72 -92 c23 -40 63 -111 89 -159 46 -86 57 -99 70 -78 3 6
12 10 18 10 9 0 9 -2 0 -8 -7 -4 -9 -13 -4 -21 7 -10 18 -7 51 14 23 14 44 24
47 21 9 -9 -5 -22 -51 -46 -25 -13 -46 -27 -46 -31 0 -9 28 -1 46 12 6 5 14 6
17 2 4 -3 7 -2 7 3 0 13 68 49 77 41 8 -9 9 -9 -70 -50 -37 -20 -63 -38 -57
-42 6 -4 26 3 45 15 19 12 40 18 46 14 7 -4 -1 -12 -20 -22 -37 -17 -56 -47
-45 -70 4 -9 8 -25 9 -35 1 -11 8 -23 16 -28 9 -5 10 -9 2 -9 -6 0 -15 5 -18
10 -5 8 -11 7 -20 0 -8 -7 -19 -9 -24 -5 -7 4 -9 -1 -5 -12 5 -15 4 -16 -5 -3
-15 21 -14 39 3 56 16 15 32 2 21 -16 -3 -5 -1 -10 4 -10 6 0 11 5 11 10 0 11
-189 345 -222 393 -11 15 -17 35 -14 43 3 8 2 13 -3 10 -10 -7 -53 59 -44 67
12 12 30 -8 69 -76z m-128 15 c13 11 14 11 7 -2 -8 -13 -6 -13 8 -2 33 28 66
0 121 -103 15 -27 36 -65 47 -84 22 -37 12 -63 -21 -54 -15 4 -20 0 -20 -15 0
-33 -39 -39 -61 -11 -10 13 -19 30 -19 37 0 7 -11 17 -25 22 -24 9 -25 10 -8
30 10 11 19 16 21 10 4 -12 32 -14 32 -2 0 17 -39 39 -78 44 -40 6 -41 5 -30
-15 8 -16 0 -13 -38 14 -44 32 -49 39 -48 72 2 51 63 101 77 65 3 -8 6 -4 8 7
1 17 2 17 6 -3 4 -20 7 -21 21 -10z m1220 -58 c-5 -4 54 -63 81 -81 2 -2 1 -6
-3 -10 -3 -4 -18 4 -31 18 -14 13 -34 33 -45 43 -23 22 -26 36 -8 36 6 0 9 -3
6 -6z m-15 -44 c8 -11 16 -18 18 -16 2 2 15 -10 28 -27 l25 -29 -23 7 c-20 6
-22 5 -12 -13 6 -11 22 -29 36 -40 23 -19 34 -42 18 -42 -11 0 -103 103 -103
115 0 5 7 2 14 -8 10 -13 16 -15 21 -7 4 7 -7 27 -26 46 -18 19 -28 34 -22 34
7 0 18 -9 26 -20z m-23 -32 c0 -6 -7 -5 -15 2 -8 7 -15 17 -15 22 0 6 7 5 15
-2 8 -7 15 -17 15 -22z m-575 2 c-3 -5 -12 -10 -18 -10 -7 0 -6 4 3 10 19 12
23 12 15 0z m-352 -35 c-3 -8 -9 -15 -14 -15 -10 0 -12 24 -3 33 11 11 24 -3
17 -18z m755 13 c19 -19 14 -29 -8 -16 -20 13 -27 28 -12 28 4 0 13 -5 20 -12z
m-681 -17 c-1 -12 -7 -17 -19 -13 -14 3 -16 7 -7 18 16 20 28 17 26 -5z m55 4
c0 -5 -5 -11 -11 -13 -6 -2 -11 4 -11 13 0 9 5 15 11 13 6 -2 11 -8 11 -13z
m358 -5 c0 -6 -17 -10 -40 -8 -22 1 -40 6 -40 10 0 4 18 8 40 8 22 0 40 -5 40
-10z m70 0 c0 -5 -13 -10 -30 -10 -16 0 -30 5 -30 10 0 6 14 10 30 10 17 0 30
-4 30 -10z m-380 -5 c0 -2 -10 -9 -22 -15 -22 -11 -22 -10 -4 4 21 17 26 19
26 11z m577 -17 c21 -12 52 -33 70 -45 24 -19 33 -21 39 -11 4 7 4 10 -1 6 -9
-9 -35 9 -35 24 0 5 6 6 13 2 9 -6 9 -4 -1 8 -10 12 -10 18 -1 23 7 5 36 -18
73 -55 33 -34 55 -59 47 -55 -11 6 -13 4 -7 -11 6 -15 5 -17 -5 -6 -7 6 -19
12 -27 12 -8 0 -20 7 -26 15 -6 9 -25 18 -41 21 -17 3 -39 14 -51 25 -11 10
-26 19 -32 19 -7 0 -12 5 -12 10 0 6 -3 9 -7 8 -13 -2 -43 14 -43 23 0 13 4
12 47 -13z m323 -44 c0 -4 -13 5 -30 21 -16 15 -27 32 -24 37 5 8 54 -43 54
-58z m-1051 37 c19 -19 19 -20 -2 -18 -23 1 -39 16 -31 29 7 12 12 10 33 -11z
m411 -7 c0 -2 -7 -4 -15 -4 -8 0 -15 4 -15 10 0 5 7 7 15 4 8 -4 15 -8 15 -10z
m25 6 c3 -5 1 -10 -4 -10 -6 0 -11 5 -11 10 0 6 2 10 4 10 3 0 8 -4 11 -10z
m91 -9 c-7 -11 -76 -13 -76 -2 0 5 15 11 33 13 35 4 50 0 43 -11z m-427 6 c-2
-1 -13 -9 -24 -17 -19 -14 -19 -14 -6 3 7 9 18 17 24 17 6 0 8 -1 6 -3z m224
-28 c-14 -14 -93 -23 -93 -10 0 6 12 11 28 11 15 0 34 4 42 9 16 11 36 3 23
-10z m102 -9 c4 -6 -5 -10 -19 -10 -14 0 -26 5 -26 10 0 6 9 10 19 10 11 0 23
-4 26 -10z m85 -2 c0 -4 -16 -8 -35 -8 -19 0 -35 4 -35 9 0 5 16 9 35 8 19 -1
35 -5 35 -9z m678 -114 c2 -1 -1 -4 -6 -8 -4 -3 -18 5 -30 17 -69 72 -86 87
-94 87 -5 0 -6 5 -2 11 4 7 30 -12 67 -48 34 -32 63 -59 65 -59z m-858 97 c0
-5 -7 -11 -15 -15 -9 -3 -15 0 -15 9 0 8 7 15 15 15 8 0 15 -4 15 -9z m625
-21 c10 -11 16 -20 13 -20 -3 0 -13 9 -23 20 -10 11 -16 20 -13 20 3 0 13 -9
23 -20z m-1012 -23 c-28 -34 -57 -56 -66 -50 -4 2 9 18 30 35 21 17 37 35 35
40 -1 5 2 6 8 3 8 -5 5 -14 -7 -28z m332 23 c-28 -12 -37 -12 -30 0 3 6 16 10
28 9 21 0 21 -1 2 -9z m225 0 c0 -13 -11 -13 -30 0 -12 8 -11 10 8 10 12 0 22
-4 22 -10z m162 1 c-20 -12 -19 -18 3 -36 19 -16 19 -16 -3 -5 -13 6 -20 16
-16 22 5 8 1 9 -11 4 -15 -5 -16 -4 -5 9 7 8 20 15 29 15 12 0 13 -2 3 -9z
m43 0 c-3 -6 4 -15 15 -21 24 -13 20 -25 -11 -33 -11 -3 -18 -3 -15 0 3 4 1
12 -5 20 -9 10 -8 17 1 28 14 17 25 20 15 6z m-535 -21 c-24 -15 -37 -11 -16
5 11 8 22 12 25 9 3 -3 -1 -9 -9 -14z m160 2 c0 -4 -18 -13 -40 -19 -45 -12
-55 0 -12 15 34 13 52 14 52 4z m255 -22 c-3 -5 -11 -10 -16 -10 -6 0 -7 5 -4
10 3 6 11 10 16 10 6 0 7 -4 4 -10z m400 -48 l4 -32 -30 21 c-33 23 -33 23
-18 51 9 18 13 18 25 6 8 -8 16 -29 19 -46z m-355 35 c14 4 20 0 20 -12 0 -12
-5 -15 -17 -10 -10 4 -23 8 -30 8 -6 0 -8 7 -5 16 3 8 7 10 9 4 2 -6 13 -9 23
-6z m-630 -11 c0 -8 -62 -67 -67 -63 -6 6 47 67 59 67 4 0 8 -2 8 -4z m345
-25 c17 -7 17 -8 -8 -13 -19 -4 -27 -1 -27 8 0 15 6 16 35 5z m-63 -23 c-7 -7
-12 -8 -12 -2 0 14 12 26 19 19 2 -3 -1 -11 -7 -17z m-78 3 c3 -5 -1 -14 -8
-20 -16 -13 -32 2 -21 19 8 12 22 13 29 1z m-104 -11 c0 -5 -7 -10 -16 -10 -8
0 -12 5 -9 10 3 6 10 10 16 10 5 0 9 -4 9 -10z m70 -21 c0 -6 -4 -7 -10 -4 -5
3 -10 11 -10 16 0 6 5 7 10 4 6 -3 10 -11 10 -16z m147 15 c-3 -3 -12 -4 -19
-1 -8 3 -5 6 6 6 11 1 17 -2 13 -5z m-186 -31 c-8 -15 -10 -15 -11 -2 0 17 10
32 18 25 2 -3 -1 -13 -7 -23z m146 21 c-3 -3 -12 -4 -19 -1 -8 3 -5 6 6 6 11
1 17 -2 13 -5z m657 -15 c-8 -14 -24 -10 -24 6 0 9 6 12 15 9 8 -4 12 -10 9
-15z m41 2 c-3 -6 1 -13 9 -18 10 -5 12 -13 7 -22 -7 -10 -13 -11 -30 -2 -26
14 -27 27 -3 40 22 13 25 13 17 2z"/>
<path d="M731 714 c0 -11 3 -14 6 -6 3 7 2 16 -1 19 -3 4 -6 -2 -5 -13z"/>
<path d="M556 567 c3 -10 9 -15 12 -12 3 3 0 11 -7 18 -10 9 -11 8 -5 -6z"/>
<path d="M786 178 c3 -5 10 -6 15 -3 13 9 11 12 -6 12 -8 0 -12 -4 -9 -9z"/>
<path d="M430 530 c-22 -13 2 -35 25 -23 13 8 14 11 3 21 -9 7 -19 7 -28 2z"/>
<path d="M520 486 c0 -2 9 -6 20 -9 11 -3 18 -1 14 4 -5 9 -34 13 -34 5z"/>
<path d="M517 450 c-3 -11 -1 -20 4 -20 5 0 9 9 9 20 0 11 -2 20 -4 20 -2 0
-6 -9 -9 -20z"/>
<path d="M570 374 c0 -8 5 -12 10 -9 6 3 10 10 10 16 0 5 -4 9 -10 9 -5 0 -10
-7 -10 -16z"/>
<path d="M566 314 c-9 -23 -7 -44 3 -44 11 0 21 49 11 55 -4 3 -11 -2 -14 -11z"/>
<path d="M749 1799 c-46 -46 -46 -48 -28 -65 24 -22 27 -119 4 -151 -13 -19
-13 -22 1 -27 13 -5 16 -17 12 -61 -4 -46 -10 -62 -37 -89 -18 -19 -50 -42
-72 -51 -46 -21 -48 -30 -14 -57 22 -17 25 -27 25 -87 0 -38 -5 -72 -12 -79
-9 -9 -8 -16 5 -30 24 -27 22 -102 -3 -135 l-21 -26 30 -16 c31 -16 81 -73 81
-93 0 -28 48 -5 103 46 43 41 45 48 17 57 -11 4 -28 17 -36 31 -21 31 -4 54
40 54 26 0 35 -7 53 -39 23 -40 101 -111 121 -111 6 0 37 21 68 46 49 40 59
45 79 36 18 -8 58 -53 81 -90 1 -2 12 2 24 8 29 16 61 -6 96 -66 18 -30 31
-43 41 -40 8 3 17 6 19 6 2 0 4 41 4 91 l0 90 56 -45 55 -46 60 41 59 40 46
-20 c25 -11 59 -35 75 -52 26 -28 31 -30 61 -20 18 6 55 27 81 47 l48 35 -35
39 c-57 63 -66 89 -66 187 l0 87 43 44 c28 30 38 46 29 49 -37 14 -99 74 -121
118 -23 43 -26 60 -24 137 2 74 6 94 24 116 20 26 20 27 3 37 -10 5 -32 23
-48 39 -38 36 -78 32 -158 -17 -68 -41 -155 -57 -306 -57 -114 0 -283 25 -297
44 -6 7 -21 16 -35 21 -14 4 -45 20 -70 35 -25 15 -61 30 -80 32 -31 4 -40 -1
-81 -43z m149 -14 c20 -14 45 -25 56 -25 18 0 18 -1 2 -19 -13 -14 -16 -28
-11 -54 5 -28 3 -37 -11 -45 -15 -9 -14 -12 14 -26 20 -10 29 -21 26 -31 -3
-8 -7 -53 -7 -101 l-2 -86 -35 -12 c-30 -10 -40 -9 -68 8 -18 10 -48 22 -65
25 -32 7 -32 8 -35 71 -2 35 -8 70 -13 76 -7 8 -6 14 1 19 15 9 13 148 -2 164
-11 10 -9 14 6 23 10 6 26 19 35 29 21 23 59 18 109 -16z m872 -21 c37 -24 38
-27 22 -43 -43 -43 -52 -46 -68 -23 -12 18 -19 20 -35 11 -16 -8 -20 -19 -18
-60 3 -52 11 -59 41 -32 26 24 32 13 29 -62 -2 -36 -3 -38 -16 -22 -7 10 -22
17 -32 15 -15 -3 -18 -14 -20 -61 l-2 -57 38 0 c22 0 44 6 51 15 17 20 27 19
33 -5 3 -12 0 -20 -7 -20 -6 0 -27 -11 -47 -24 -30 -21 -41 -23 -80 -15 -24 4
-46 8 -49 9 -3 0 -4 34 -2 76 3 57 1 79 -9 86 -11 7 -11 11 -1 15 8 3 12 27
12 68 0 54 -3 63 -20 68 -11 3 -20 10 -20 17 0 6 3 9 8 6 4 -2 34 11 67 30 33
18 66 34 73 34 7 0 30 -12 52 -26z m-753 -34 c14 -11 36 -20 49 -20 25 0 28
-10 74 -190 11 -47 23 -93 26 -102 4 -15 -1 -18 -29 -18 -26 0 -36 5 -40 20
-4 17 -9 18 -36 9 -17 -6 -28 -15 -25 -20 3 -5 -8 -9 -25 -9 l-29 0 14 53 c7
28 19 88 24 132 9 66 9 86 -4 115 -15 34 -15 34 -10 -38 l6 -74 -31 23 c-34
25 -40 34 -16 25 17 -6 21 9 5 19 -14 9 -13 68 2 83 15 15 15 16 45 -8z m522
-36 c-22 -23 -24 -35 -28 -140 -2 -74 0 -114 7 -114 16 0 42 29 42 47 0 24 25
8 27 -18 6 -64 -1 -69 -83 -69 l-75 0 15 22 c12 17 16 50 16 145 l0 123 28 6
c15 3 36 9 47 14 30 13 30 12 4 -16z m-224 -4 l121 0 -4 -41 c-4 -38 -5 -39
-19 -20 -8 12 -18 21 -24 21 -12 0 -12 -206 1 -231 10 -17 7 -19 -32 -19 l-43
0 3 125 c3 106 1 126 -13 131 -8 4 -22 0 -31 -7 -13 -11 -15 -33 -12 -131 l3
-118 -38 0 -38 0 7 45 c3 25 3 84 -1 130 -6 79 -8 84 -26 75 -10 -6 -19 -18
-19 -27 0 -29 -18 0 -26 41 l-7 39 39 -6 c21 -4 93 -7 159 -7z m285 -23 c0
-19 -1 -19 -19 -3 -17 16 -19 16 -26 -6 -6 -20 -8 -21 -12 -5 -3 10 0 24 7 31
15 20 50 8 50 -17z m-735 -311 c18 -14 38 -26 44 -26 22 0 10 -16 -33 -42
l-44 -26 -21 29 c-18 24 -25 28 -41 19 -17 -9 -20 -21 -20 -76 l0 -66 34 21
c41 25 46 18 46 -62 l0 -50 -24 22 c-41 38 -61 25 -64 -43 -3 -65 11 -96 58
-124 l28 -18 -29 -13 c-16 -7 -29 -19 -29 -26 0 -28 -29 -23 -49 9 -11 18 -32
38 -45 46 -20 10 -23 17 -16 31 14 25 12 133 -2 147 -9 9 -9 15 0 24 7 7 12
42 12 85 0 62 -3 75 -20 85 -28 18 -25 25 14 43 18 9 44 27 56 40 21 22 24 23
66 10 25 -7 60 -25 79 -39z m986 18 c7 -8 25 -22 40 -30 l28 -14 -37 -34 -37
-35 -13 25 c-13 25 -20 28 -46 18 -21 -8 -23 -124 -2 -124 7 0 19 7 26 15 22
27 30 16 30 -40 0 -51 -10 -69 -25 -45 -3 6 -16 10 -28 10 -21 0 -22 -4 -19
-64 4 -64 4 -65 37 -76 25 -8 40 -8 56 0 18 10 25 8 50 -16 29 -28 33 -48 4
-24 -13 11 -15 10 -10 -1 6 -17 -57 -55 -74 -44 -7 3 -11 3 -10 -2 4 -24 -4
-22 -37 7 -20 17 -50 38 -68 46 l-31 15 3 80 c3 59 0 79 -9 79 -10 0 -10 3 -1
12 7 7 12 42 12 85 0 58 -3 73 -15 73 -8 0 -15 5 -15 10 0 6 5 10 11 10 6 0
25 12 43 27 59 49 114 65 137 37z m-533 -39 c30 -14 61 -25 70 -25 15 -1 14
-3 -2 -15 -16 -12 -18 -23 -13 -75 6 -54 5 -60 -12 -60 -10 0 -24 -6 -30 -13
-8 -11 -5 -16 15 -25 25 -12 70 -94 60 -111 -3 -4 -6 -51 -7 -104 l-1 -97 -46
51 -45 50 2 75 c2 56 -2 82 -14 100 -13 20 -19 23 -31 13 -10 -8 -14 -36 -14
-102 l0 -90 -43 39 c-41 37 -43 41 -39 87 3 33 1 47 -8 47 -9 0 -9 4 -2 13 6
7 11 53 12 102 2 118 3 113 -17 117 -27 5 45 46 82 47 17 0 54 -10 83 -24z
m-208 -35 c17 -17 20 -33 20 -96 0 -42 -5 -105 -12 -140 -10 -54 -18 -70 -60
-114 l-49 -51 -27 21 c-15 12 -39 40 -54 62 -27 39 -28 47 -28 155 l0 114 33
34 c29 31 37 34 95 34 49 1 66 -3 82 -19z m508 4 c15 -10 22 -25 22 -49 0 -28
-6 -37 -30 -50 -38 -20 -40 -19 -40 10 0 28 -43 56 -60 39 -5 -5 -12 -53 -16
-106 -6 -89 -5 -99 16 -132 12 -20 26 -36 30 -36 13 0 26 29 34 72 5 30 3 39
-14 51 -21 15 -21 15 21 40 32 19 47 23 61 16 25 -13 23 -22 -4 -16 -22 6 -22
5 -4 -8 16 -12 18 -23 13 -66 -8 -62 -30 -102 -80 -142 -30 -24 -40 -28 -50
-18 -6 6 -12 17 -12 24 -1 7 -6 11 -13 10 -7 -2 -25 16 -42 39 -29 40 -30 44
-30 155 0 101 2 118 21 141 20 26 27 28 139 40 9 1 26 -5 38 -14z"/>
<path d="M830 1685 c0 -58 7 -66 33 -37 30 33 16 92 -20 92 -9 0 -13 -17 -13
-55z m27 -12 c-3 -10 -5 -2 -5 17 0 19 2 27 5 18 2 -10 2 -26 0 -35z"/>
<path d="M852 1584 c-42 -29 -22 -134 25 -134 15 0 22 122 8 137 -8 10 -15 10
-33 -3z"/>
<path d="M981 1671 c-10 -6 -10 -10 -1 -16 13 -8 24 -1 19 14 -3 6 -10 7 -18
2z"/>
<path d="M1050 1531 c0 -16 -3 -36 -6 -45 -4 -10 -1 -16 9 -16 23 0 27 12 20
53 -7 44 -23 49 -23 8z"/>
<path d="M681 1103 c7 -12 15 -20 18 -17 3 2 -3 12 -13 22 -17 16 -18 16 -5
-5z"/>
<path d="M690 1033 c0 -46 8 -58 27 -42 19 16 16 43 -7 64 -20 18 -20 17 -20
-22z"/>
<path d="M1257 1293 c-4 -3 -7 -40 -7 -82 l1 -76 24 28 c31 35 34 96 7 120
-10 10 -22 14 -25 10z"/>
<path d="M1328 939 c-3 -18 2 -30 19 -42 13 -10 23 -14 23 -9 0 6 -7 13 -16
16 -8 3 -13 9 -11 13 3 5 1 17 -3 28 -6 18 -7 17 -12 -6z"/>
<path d="M982 1258 c-8 -8 -12 -47 -12 -107 0 -80 4 -102 21 -130 l21 -35 19
25 c15 20 19 42 19 130 0 107 -7 129 -40 129 -9 0 -21 -5 -28 -12z"/>
<path d="M960 962 c6 -13 14 -21 18 -18 3 4 -2 14 -12 24 -18 16 -18 16 -6 -6z"/>
<path d="M670 1575 c0 -8 2 -15 4 -15 2 0 6 7 10 15 3 8 1 15 -4 15 -6 0 -10
-7 -10 -15z"/>
<path d="M1900 1560 c-12 -8 -12 -10 5 -10 11 0 27 5 35 10 12 8 12 10 -5 10
-11 0 -27 -5 -35 -10z"/>
<path d="M1980 1556 c0 -8 4 -17 9 -20 5 -4 7 3 4 14 -6 23 -13 26 -13 6z"/>
<path d="M1903 1533 c9 -2 25 -2 35 0 9 3 1 5 -18 5 -19 0 -27 -2 -17 -5z"/>
<path d="M1955 1521 c-3 -5 0 -13 6 -16 7 -5 3 -12 -10 -22 -12 -8 -21 -21
-21 -30 0 -16 1 -16 13 -1 13 19 75 27 96 14 11 -7 12 -6 5 5 -5 8 -7 22 -6
32 3 18 -24 25 -30 7 -1 -5 -13 -7 -25 -4 -13 4 -20 10 -17 15 3 5 3 9 0 9 -3
0 -7 -4 -11 -9z"/>
<path d="M2083 1483 c9 -2 23 -2 30 0 6 3 -1 5 -18 5 -16 0 -22 -2 -12 -5z"/>
<path d="M2031 1414 c0 -11 3 -14 6 -6 3 7 2 16 -1 19 -3 4 -6 -2 -5 -13z"/>
<path d="M1995 1080 c17 -19 35 -19 35 2 0 5 -7 8 -15 4 -8 -3 -15 -1 -15 4 0
6 -5 10 -12 10 -6 0 -3 -8 7 -20z"/>
<path d="M1638 888 c-30 -10 -38 -28 -13 -28 8 0 15 -4 15 -10 0 -6 -9 -6 -25
0 -19 7 -23 6 -18 -5 3 -8 9 -15 15 -15 5 0 6 -5 3 -10 -4 -7 -13 -7 -26 0
-11 6 -32 13 -47 15 -15 2 -38 7 -52 10 l-25 6 25 -16 25 -16 -33 7 c-31 5
-33 5 -21 -14 11 -17 8 -23 -17 -48 -37 -36 -45 -39 -55 -22 -7 10 -9 9 -9 -4
0 -10 7 -18 15 -18 19 0 19 -13 -1 -75 -9 -27 -17 -57 -18 -65 -2 -8 -11 -41
-21 -73 -18 -54 -18 -59 -2 -74 14 -14 17 -15 17 -3 0 13 2 13 10 0 16 -25 12
-29 -27 -24 l-38 5 30 -17 c21 -12 26 -19 16 -22 -8 -3 -17 0 -19 6 -2 6 -10
8 -19 5 -13 -5 -11 -9 8 -24 l24 -19 -28 0 c-30 0 -29 -14 2 -23 15 -4 30 15
79 102 33 58 106 187 161 285 56 99 100 183 99 186 -2 4 -15 3 -30 -2z m-48
-125 c0 -3 -11 -18 -24 -33 -18 -22 -26 -26 -36 -17 -10 10 -12 8 -7 -6 4 -10
3 -16 -2 -13 -16 10 -11 85 7 95 14 8 62 -12 62 -26z m-95 -123 c-10 -11 -23
-20 -28 -20 -6 0 -2 9 8 20 10 11 23 20 28 20 6 0 2 -9 -8 -20z m-25 -30 c19
-10 18 -12 -5 -47 -14 -19 -25 -39 -25 -42 0 -4 -9 -7 -20 -7 -17 0 -14 6 17
36 l36 35 -27 3 c-22 3 -25 6 -15 18 14 17 15 17 39 4z"/>
<path d="M1110 881 c0 -6 10 -8 21 -6 33 6 36 15 6 15 -15 0 -27 -4 -27 -9z"/>
<path d="M1686 863 c-6 -14 -5 -15 5 -6 7 7 10 15 7 18 -3 3 -9 -2 -12 -12z"/>
<path d="M1138 859 c-8 -6 -9 -9 -1 -9 8 0 8 -6 0 -24 -7 -13 -14 -23 -17 -21
-3 2 -4 -13 -1 -33 l4 -37 8 35 c10 45 35 63 79 55 35 -7 35 -7 15 13 -24 22
-68 33 -87 21z"/>
<path d="M2000 851 c0 -5 4 -21 10 -36 9 -23 8 -25 -9 -16 -10 6 -22 7 -26 3
-3 -4 -10 -7 -13 -7 -11 -1 -262 -250 -262 -260 0 -5 31 22 70 60 67 67 70 68
85 50 12 -17 14 -17 9 -2 -8 21 21 24 30 2 3 -8 0 -15 -6 -15 -7 0 -5 -7 4
-17 9 -10 18 -25 22 -33 3 -8 4 -4 1 10 -3 14 -8 36 -11 50 -3 14 -9 26 -15
28 -11 4 -12 32 -1 32 4 0 16 14 27 31 27 42 59 53 98 34 36 -18 40 -19 31 -3
-4 6 8 0 27 -14 l34 -27 1 24 c1 14 -12 40 -33 65 -28 33 -38 38 -49 29 -12
-10 -13 -9 -8 5 3 9 1 16 -5 16 -6 0 -11 -4 -11 -9z m68 -54 c18 -18 29 -36
25 -40 -7 -8 -73 51 -73 65 0 16 17 7 48 -25z"/>
<path d="M1260 836 c0 -9 30 -14 35 -6 4 6 -3 10 -14 10 -12 0 -21 -2 -21 -4z"/>
<path d="M529 813 c-13 -17 -13 -17 6 -3 11 8 22 16 24 17 2 2 0 3 -6 3 -6 0
-17 -8 -24 -17z"/>
<path d="M584 782 c-10 -9 -19 -10 -32 -3 -14 8 -19 6 -19 -5 0 -8 6 -13 14
-10 21 8 15 -4 -13 -26 -14 -11 -23 -22 -20 -25 5 -5 88 45 97 59 3 5 8 8 10
7 2 -2 12 2 23 8 16 9 14 10 -14 9 -19 0 -39 -7 -46 -14z"/>
<path d="M2050 738 c0 -7 -3 -23 -6 -35 -5 -19 -2 -23 15 -23 24 0 28 -18 6
-26 -8 -4 -15 -11 -15 -17 0 -8 3 -8 11 0 6 6 18 9 25 6 10 -4 12 0 8 11 -4
10 -1 16 9 16 25 0 31 -20 11 -35 -11 -8 -14 -15 -7 -15 6 0 15 5 18 10 4 6
29 -8 58 -33 94 -77 93 -73 -3 28 -107 114 -130 133 -130 113z"/>
<path d="M1366 679 c-8 -42 0 -50 9 -9 4 17 5 34 2 36 -2 3 -7 -10 -11 -27z"/>
<path d="M2120 701 c0 -10 30 -24 37 -17 3 2 -5 9 -16 16 -12 6 -21 7 -21 1z"/>
<path d="M1121 615 c-2 -49 -4 -108 -5 -130 l-1 -40 90 -1 c50 -1 68 0 40 2
-27 2 -64 6 -82 9 l-32 6 -4 122 c-3 118 -3 119 -6 32z"/>
<path d="M408 662 c-12 -5 -15 -11 -8 -22 8 -13 13 -12 32 8 23 23 13 29 -24
14z"/>
<path d="M355 630 c-3 -5 -2 -10 4 -10 5 0 13 5 16 10 3 6 2 10 -4 10 -5 0
-13 -4 -16 -10z"/>
<path d="M1341 584 c-15 -61 -8 -68 9 -9 7 25 10 48 8 51 -3 2 -11 -16 -17
-42z"/>
<path d="M2275 600 c16 -16 31 -28 33 -25 7 7 -39 55 -52 55 -5 0 3 -13 19
-30z"/>
<path d="M2244 583 c17 -18 37 -33 45 -32 14 0 14 1 1 6 -8 3 -28 17 -45 32
l-30 26 29 -32z"/>
<path d="M2058 593 c-10 -2 -18 -8 -18 -11 1 -9 30 -43 53 -61 15 -12 17 -11
17 8 0 12 -6 21 -15 21 -11 0 -14 7 -11 25 3 14 2 24 -2 24 -4 -1 -15 -3 -24
-6z"/>
<path d="M1954 564 c3 -9 6 -17 6 -20 0 -2 6 -1 14 2 8 3 17 1 21 -5 3 -6 -1
-11 -9 -11 -9 0 -16 -6 -16 -12 0 -7 -5 -5 -11 5 -18 32 -29 7 -27 -64 2 -69
9 -83 26 -53 7 13 13 14 29 6 24 -13 43 2 43 34 0 13 5 26 10 29 6 4 9 22 8
41 -2 29 -6 34 -20 31 -11 -3 -22 2 -28 14 -13 24 -55 27 -46 3z m68 -95 c-4
-41 -9 -46 -39 -42 -24 4 -28 9 -28 39 0 33 1 34 35 30 30 -3 35 -7 32 -27z"/>
<path d="M1995 440 c3 -5 8 -10 11 -10 2 0 4 5 4 10 0 6 -5 10 -11 10 -5 0 -7
-4 -4 -10z"/>
<path d="M2361 534 c0 -11 3 -14 6 -6 3 7 2 16 -1 19 -3 4 -6 -2 -5 -13z"/>
<path d="M230 531 c0 -6 4 -12 8 -15 5 -3 9 1 9 9 0 8 -4 15 -9 15 -4 0 -8 -4
-8 -9z"/>
<path d="M298 533 c7 -3 16 -2 19 1 4 3 -2 6 -13 5 -11 0 -14 -3 -6 -6z"/>
<path d="M1730 512 c6 -13 14 -21 18 -18 3 4 -2 14 -12 24 -18 16 -18 16 -6
-6z"/>
<path d="M2249 484 c-5 -15 -12 -32 -16 -38 -4 -6 2 -3 13 6 11 9 20 26 21 38
2 28 -6 25 -18 -6z"/>
<path d="M2194 408 l-19 -23 23 19 c21 18 27 26 19 26 -2 0 -12 -10 -23 -22z"/>
<path d="M2105 317 c-72 -75 -90 -102 -24 -37 53 53 85 90 78 90 -2 -1 -27
-24 -54 -53z"/>
<path d="M2030 183 c-52 -53 -71 -76 -42 -50 49 42 149 147 140 147 -2 0 -46
-44 -98 -97z"/>
<path d="M1198 203 c7 -3 16 -2 19 1 4 3 -2 6 -13 5 -11 0 -14 -3 -6 -6z"/>
<path d="M1855 98 c28 -39 25 -48 -18 -43 -28 3 -28 3 -11 -16 21 -23 25 -24
17 -3 -5 14 -3 15 14 5 16 -8 24 -7 32 3 8 10 2 22 -25 52 l-35 39 26 -37z"/>
</g>
</svg>
